<?xml version="1.0" standalone="no"?><!DOCTYPE svg PUBLIC "-//W3C//DTD SVG 1.1//EN" "http://www.w3.org/Graphics/SVG/1.1/DTD/svg11.dtd"><svg t="1538203428439" class="icon" style="" viewBox="0 0 1024 1024" version="1.1" xmlns="http://www.w3.org/2000/svg" p-id="1611" xmlns:xlink="http://www.w3.org/1999/xlink" width="200" height="200"><defs><style type="text/css"></style></defs><path d="M486.4 85.333333c34.133333 0 55.466667 6.4 72.533333 12.8C571.733333 100.266667 582.4 104.533333 597.333333 106.666667c4.266667 0 10.666667 0 17.066667 0 14.933333 0 25.6-2.133333 36.266667-4.266667l-6.4 27.733333 19.2 29.866667c17.066667 25.6 17.066667 76.8 14.933333 138.666667l0 34.133333 23.466667 25.6c4.266667 4.266667 6.4 12.8 6.4 21.333333l0 2.133333 0 2.133333c2.133333 19.2-6.4 44.8-25.6 57.6L661.333333 462.933333 652.8 490.666667c-8.533333 36.266667-21.333333 68.266667-32 89.6l-32 61.866667 55.466667 42.666667c19.2 14.933333 49.066667 36.266667 89.6 53.333333l2.133333 0 2.133333 0c102.4 38.4 177.066667 96 177.066667 136.533333L915.2 938.666667 106.666667 938.666667l0-59.733333c0-40.533333 74.666667-100.266667 179.2-138.666667l2.133333 0 2.133333 0c40.533333-17.066667 70.4-38.4 89.6-53.333333l55.466667-42.666667-32-61.866667c-10.666667-21.333333-21.333333-53.333333-32-89.6L362.666667 460.8l-23.466667-17.066667c-21.333333-17.066667-25.6-49.066667-23.466667-59.733333l0-2.133333 0-2.133333c0-6.4 2.133333-14.933333 6.4-19.2l23.466667-27.733333L341.333333 296.533333C337.066667 251.733333 337.066667 170.666667 377.6 149.333333l23.466667-12.8 12.8-23.466667C422.4 96 450.133333 85.333333 486.4 85.333333M486.4 0c-70.4 0-123.733333 27.733333-149.333333 74.666667-87.466667 46.933333-85.333333 166.4-81.066667 230.4-17.066667 19.2-25.6 44.8-27.733333 74.666667-2.133333 34.133333 8.533333 96 57.6 132.266667 8.533333 34.133333 21.333333 74.666667 38.4 106.666667-14.933333 10.666667-38.4 27.733333-70.4 42.666667C198.4 682.666667 21.333333 759.466667 21.333333 878.933333l0 72.533333C21.333333 992 53.333333 1024 93.866667 1024l836.266667 0c40.533333 0 72.533333-32 72.533333-72.533333l0-72.533333c0-121.6-177.066667-196.266667-232.533333-217.6-32-14.933333-57.6-32-72.533333-42.666667 17.066667-32 29.866667-72.533333 38.4-108.8 42.666667-34.133333 59.733333-87.466667 57.6-130.133333 0-32-10.666667-59.733333-29.866667-78.933333 2.133333-81.066667 0-140.8-29.866667-187.733333 4.266667-14.933333 4.266667-27.733333 4.266667-32C738.133333 57.6 725.333333 34.133333 704 21.333333c-12.8-6.4-25.6-10.666667-38.4-10.666667-10.666667 0-21.333333 2.133333-29.866667 6.4-2.133333 2.133333-12.8 4.266667-21.333333 4.266667-2.133333 0-4.266667 0-4.266667 0-6.4 0-14.933333-2.133333-23.466667-6.4C563.2 8.533333 533.333333 0 486.4 0L486.4 0z" p-id="1612" fill="#001529"></path></svg>